<svg width="18.750000" height="18.750000" viewBox="0 0 18.75 18.75" fill="none" xmlns="http://www.w3.org/2000/svg" xmlns:xlink="http://www.w3.org/1999/xlink">
	<desc>
			Created with Pixso.
	</desc>
	<defs/>
	<path id="Vector" d="M0.75 0L18 0C18.41 0 18.75 0.33 18.75 0.75L18.75 18C18.75 18.41 18.41 18.75 18 18.75L0.75 18.75C0.33 18.75 0 18.41 0 18L0 0.75C0 0.33 0.33 0 0.75 0ZM1.68 17.06L17.06 17.06L17.06 1.68L1.68 1.68L1.68 17.06ZM12.81 9.52L7.04 13.7C6.92 13.78 6.75 13.7 6.75 13.54L6.75 12.44C6.75 12.2 6.86 11.98 7.05 11.84L10.46 9.37L7.05 6.91C6.86 6.77 6.75 6.54 6.75 6.3L6.75 5.2C6.75 5.05 6.92 4.96 7.04 5.05L12.81 9.22C12.91 9.3 12.91 9.45 12.81 9.52Z" fill="#E6DFE7" fill-opacity="1.000000" fill-rule="evenodd"/>
</svg>
