<svg width="18.750000" height="18.750000" viewBox="0 0 18.75 18.75" fill="none" xmlns="http://www.w3.org/2000/svg" xmlns:xlink="http://www.w3.org/1999/xlink">
	<desc>
			Created with Pixso.
	</desc>
	<defs/>
	<path id="Vector" d="M0.75 0L18 0C18.41 0 18.75 0.33 18.75 0.75L18.75 18C18.75 18.41 18.41 18.75 18 18.75L0.75 18.75C0.33 18.75 0 18.41 0 18L0 0.75C0 0.33 0.33 0 0.75 0ZM1.68 17.06L17.06 17.06L17.06 1.68L1.68 1.68L1.68 17.06ZM11.7 13.69L5.93 9.52C5.91 9.5 5.89 9.48 5.88 9.45C5.86 9.43 5.86 9.4 5.86 9.37C5.86 9.34 5.86 9.31 5.88 9.28C5.89 9.26 5.91 9.23 5.93 9.22L11.7 5.04C11.82 4.96 12 5.04 12 5.2L12 6.3C12 6.54 11.88 6.76 11.69 6.9L8.28 9.37L11.69 11.83C11.88 11.98 12 12.2 12 12.44L12 13.54C12 13.69 11.82 13.78 11.7 13.69Z" fill="#E6DFE7" fill-opacity="1.000000" fill-rule="evenodd"/>
</svg>
