<svg width="53.000000" height="53.000000" viewBox="0 0 53 53" fill="none" xmlns="http://www.w3.org/2000/svg" xmlns:xlink="http://www.w3.org/1999/xlink">
	<desc>
			Created with Pixso.
	</desc>
	<defs/>
	<circle id="Ellipse 1" cx="26.500000" cy="26.500000" r="26.500000" fill="#410C55" fill-opacity="1.000000"/>
	<path id="Vector" d="M32.56 22.79C32.75 22.79 32.93 22.79 33.11 22.8C32.35 18.78 28.16 15.71 23.11 15.71C17.53 15.71 13 19.48 13 24.13C13 26.66 14.36 28.94 16.49 30.49C16.58 30.55 16.65 30.63 16.7 30.73C16.75 30.82 16.78 30.93 16.78 31.04C16.78 31.11 16.76 31.18 16.74 31.25C16.57 31.89 16.3 32.9 16.29 32.95C16.26 33.03 16.23 33.11 16.23 33.2C16.23 33.38 16.38 33.53 16.57 33.53C16.64 33.53 16.7 33.51 16.76 33.47L18.98 32.19C19.15 32.1 19.32 32.04 19.52 32.04C19.62 32.04 19.72 32.05 19.81 32.08C20.85 32.38 21.96 32.54 23.12 32.54C23.3 32.54 23.49 32.54 23.67 32.53C23.45 31.88 23.33 31.18 23.33 30.47C23.33 26.23 27.46 22.79 32.56 22.79ZM26.49 20.08C27.23 20.08 27.84 20.69 27.84 21.43C27.84 22.18 27.24 22.78 26.49 22.78C25.75 22.78 25.14 22.18 25.14 21.43C25.14 20.69 25.75 20.08 26.49 20.08ZM19.74 22.78C19 22.78 18.39 22.18 18.39 21.43C18.39 20.69 19 20.08 19.74 20.08C20.49 20.08 21.09 20.69 21.09 21.43C21.09 22.18 20.49 22.78 19.74 22.78ZM38.08 35.77C39.86 34.48 40.99 32.58 40.99 30.46C40.99 26.59 37.22 23.45 32.56 23.45C27.9 23.45 24.12 26.59 24.12 30.46C24.12 34.34 27.9 37.48 32.56 37.48C33.52 37.48 34.45 37.34 35.31 37.09C35.39 37.07 35.47 37.06 35.56 37.06C35.72 37.06 35.87 37.11 36 37.18L37.85 38.25C37.9 38.28 37.95 38.3 38.01 38.3C38.05 38.3 38.09 38.29 38.12 38.28C38.16 38.27 38.19 38.25 38.21 38.22C38.24 38.19 38.26 38.16 38.27 38.13C38.29 38.09 38.3 38.06 38.3 38.02C38.3 37.95 38.27 37.88 38.25 37.81C38.24 37.78 38.01 36.93 37.87 36.4C37.85 36.34 37.84 36.28 37.84 36.22C37.84 36.03 37.94 35.87 38.08 35.77ZM29.75 29.34C29.13 29.34 28.63 28.84 28.63 28.22C28.63 27.6 29.13 27.1 29.75 27.1C30.37 27.1 30.88 27.6 30.88 28.22C30.88 28.84 30.37 29.34 29.75 29.34ZM35.37 29.34C34.75 29.34 34.25 28.84 34.25 28.22C34.25 27.6 34.75 27.1 35.37 27.1C36 27.1 36.5 27.6 36.5 28.22C36.5 28.52 36.38 28.8 36.17 29.01C35.96 29.23 35.67 29.34 35.37 29.34Z" fill="#E6DFE7" fill-opacity="1.000000" fill-rule="nonzero"/>
</svg>
