<svg width="53.000000" height="53.000000" viewBox="0 0 53 53" fill="none" xmlns="http://www.w3.org/2000/svg" xmlns:xlink="http://www.w3.org/1999/xlink">
	<desc>
			Created with Pixso.
	</desc>
	<defs/>
	<circle id="Ellipse 1" cx="26.500000" cy="26.500000" r="26.500000" fill="#410C55" fill-opacity="1.000000"/>
	<path id="Vector" d="M38.53 24.82L27.24 24.82L27.24 29.46L33.69 29.46C33.41 30.96 32.56 32.23 31.29 33.08C30.22 33.8 28.85 34.22 27.23 34.22C24.11 34.22 21.47 32.11 20.53 29.28C20.29 28.56 20.15 27.79 20.15 27C20.15 26.21 20.29 25.44 20.53 24.72C21.47 21.89 24.11 19.78 27.24 19.78C29 19.78 30.57 20.39 31.82 21.58L35.26 18.14C33.18 16.2 30.47 15.01 27.24 15.01C22.55 15.01 18.5 17.7 16.53 21.62C15.71 23.24 15.25 25.07 15.25 27C15.25 28.94 15.71 30.77 16.53 32.39C18.5 36.31 22.55 39 27.24 39C30.47 39 33.19 37.92 35.17 36.09C37.43 34 38.74 30.93 38.74 27.27C38.74 26.42 38.67 25.61 38.53 24.82Z" fill="#E6DFE7" fill-opacity="1.000000" fill-rule="nonzero"/>
</svg>
