<svg width="20.247681" height="18.138916" viewBox="0 0 20.2477 18.1389" fill="none" xmlns="http://www.w3.org/2000/svg" xmlns:xlink="http://www.w3.org/1999/xlink">
	<desc>
			Created with Pixso.
	</desc>
	<defs/>
	<path id="Vector" d="M19.75 3.71C19.44 2.98 18.99 2.33 18.42 1.77C17.85 1.22 17.18 0.77 16.45 0.47C15.69 0.15 14.87 -0.01 14.05 0C12.9 0 11.77 0.31 10.79 0.91C10.55 1.05 10.33 1.21 10.12 1.38C9.91 1.21 9.69 1.05 9.45 0.91C8.47 0.31 7.35 0 6.19 0C5.36 0 4.55 0.15 3.79 0.47C3.05 0.78 2.39 1.21 1.82 1.77C1.25 2.33 0.8 2.98 0.49 3.71C0.16 4.47 0 5.27 0 6.1C0 6.88 0.15 7.69 0.47 8.52C0.74 9.21 1.12 9.93 1.6 10.65C2.37 11.8 3.43 13 4.74 14.21C6.91 16.22 9.07 17.6 9.16 17.66L9.71 18.02C9.96 18.17 10.28 18.17 10.52 18.02L11.08 17.66C11.17 17.6 13.32 16.22 15.5 14.21C16.81 13 17.87 11.8 18.64 10.65C19.12 9.93 19.5 9.21 19.77 8.52C20.08 7.69 20.24 6.88 20.24 6.1C20.25 5.27 20.08 4.47 19.75 3.71ZM10.12 16.16C10.12 16.16 1.78 10.82 1.78 6.1C1.78 3.71 3.75 1.78 6.19 1.78C7.9 1.78 9.39 2.73 10.12 4.13C10.85 2.73 12.34 1.78 14.05 1.78C16.49 1.78 18.46 3.71 18.46 6.1C18.46 10.82 10.12 16.16 10.12 16.16Z" fill="#E6DFE7" fill-opacity="1.000000" fill-rule="nonzero"/>
</svg>
