<svg width="17" height="17" viewBox="0 0 17 17" fill="none" xmlns="http://www.w3.org/2000/svg">
<path d="M4.09303 9.54864L12.2299 1.41176L14.9545 4.13794L6.8184 12.274L3.57541 12.8428C3.55988 12.8449 3.55488 12.8448 3.55651 12.8448C3.55244 12.8448 3.55019 12.8442 3.54773 12.8432C3.54523 12.8421 3.5386 12.8389 3.52891 12.8301C3.52617 12.827 3.5241 12.8233 3.52284 12.8193C3.52136 12.8146 3.52104 12.8097 3.52193 12.8048L3.5226 12.801L4.09303 9.54864ZM15.269 4.45264C15.2688 4.45244 15.2686 4.45224 15.2684 4.45204L15.269 4.45264ZM12.6863 2.20455L12.2301 1.74831L11.7738 2.20449L4.45946 9.51677L4.91571 9.97314L4.28008 9.86172L3.96549 11.6565L3.8065 12.5636L4.71335 12.4034L6.50612 12.0868L6.70635 12.0514L6.85014 11.9077L14.1644 4.59542L14.6209 4.13911L14.1645 3.68274L12.6863 2.20455ZM1.26361 15.8294H16.106V16.0714H1.26361V15.8294Z" fill="black" fill-opacity="0.88" stroke="#080217" stroke-width="1.29064"/>
</svg>
