<svg width="25" height="17" viewBox="0 0 25 17" fill="none" xmlns="http://www.w3.org/2000/svg">
<path d="M24.0035 15.6471L12.9848 0.456445C12.5848 -0.0935547 11.766 -0.0935547 11.3691 0.456445L0.347255 15.6471C0.320132 15.6844 0.303883 15.7286 0.30031 15.7746C0.296738 15.8206 0.305981 15.8668 0.327015 15.9078C0.348049 15.9489 0.380053 15.9834 0.419479 16.0074C0.458905 16.0315 0.504213 16.0441 0.55038 16.0439H2.89413C3.05351 16.0439 3.20351 15.9658 3.29726 15.8377L12.1754 3.60019L21.0535 15.8377C21.1473 15.9658 21.2973 16.0439 21.4566 16.0439H23.8004C24.0035 16.0439 24.1223 15.8127 24.0035 15.6471Z" fill="#BC98C9"/>
</svg>
