<svg width="27.996887" height="22.593750" viewBox="0 0 27.9969 22.5938" fill="none" xmlns="http://www.w3.org/2000/svg" xmlns:xlink="http://www.w3.org/1999/xlink">
	<desc>
			Created with Pixso.
	</desc>
	<defs/>
	<path id="Vector" d="M19.56 7.08C19.75 7.08 19.93 7.08 20.11 7.09C19.35 3.07 15.16 0 10.11 0C4.53 0 0 3.76 0 8.41C0 10.95 1.36 13.23 3.49 14.78C3.58 14.84 3.65 14.92 3.7 15.02C3.75 15.11 3.78 15.22 3.78 15.33C3.78 15.4 3.76 15.47 3.74 15.54C3.57 16.18 3.3 17.19 3.29 17.24C3.26 17.32 3.23 17.4 3.23 17.49C3.23 17.67 3.38 17.82 3.57 17.82C3.64 17.82 3.7 17.79 3.76 17.76L5.98 16.48C6.14 16.39 6.32 16.33 6.52 16.33C6.62 16.33 6.72 16.34 6.81 16.37C7.85 16.67 8.96 16.83 10.12 16.83C10.3 16.83 10.49 16.83 10.67 16.82C10.45 16.16 10.33 15.47 10.33 14.76C10.33 10.51 14.46 7.08 19.56 7.08ZM13.49 4.37C14.23 4.37 14.84 4.98 14.84 5.72C14.84 6.46 14.24 7.07 13.49 7.07C12.75 7.07 12.14 6.46 12.14 5.72C12.14 4.98 12.75 4.37 13.49 4.37ZM6.74 7.07C6 7.07 5.39 6.46 5.39 5.72C5.39 4.98 6 4.37 6.74 4.37C7.49 4.37 8.09 4.98 8.09 5.72C8.09 6.46 7.49 7.07 6.74 7.07ZM25.08 20.05C26.86 18.77 27.99 16.87 27.99 14.75C27.99 10.88 24.22 7.74 19.56 7.74C14.9 7.74 11.12 10.88 11.12 14.75C11.12 18.63 14.9 21.77 19.56 21.77C20.52 21.77 21.45 21.63 22.31 21.38C22.39 21.36 22.47 21.35 22.56 21.35C22.72 21.35 22.87 21.4 23 21.47L24.85 22.54C24.9 22.57 24.95 22.59 25.01 22.59C25.05 22.59 25.09 22.58 25.12 22.57C25.16 22.55 25.19 22.53 25.21 22.51C25.24 22.48 25.26 22.45 25.27 22.42C25.29 22.38 25.3 22.34 25.3 22.31C25.3 22.24 25.27 22.17 25.25 22.1C25.24 22.06 25.01 21.22 24.87 20.69C24.85 20.63 24.84 20.57 24.84 20.51C24.85 20.32 24.94 20.16 25.08 20.05ZM16.75 13.63C16.13 13.63 15.63 13.13 15.63 12.51C15.63 11.89 16.13 11.39 16.75 11.39C17.37 11.39 17.88 11.89 17.88 12.51C17.88 13.13 17.37 13.63 16.75 13.63ZM22.37 13.63C21.75 13.63 21.25 13.13 21.25 12.51C21.25 11.89 21.75 11.39 22.37 11.39C23 11.39 23.5 11.89 23.5 12.51C23.5 12.81 23.38 13.09 23.17 13.3C22.96 13.51 22.67 13.63 22.37 13.63Z" fill="#E6DFE7" fill-opacity="1.000000" fill-rule="nonzero"/>
</svg>
