<!-- <svg width="24.983582" height="24.983154" viewBox="0 0 24.9836 24.9832" fill="none" xmlns="http://www.w3.org/2000/svg" xmlns:xlink="http://www.w3.org/1999/xlink">
	<desc>
			Created with Pixso.
	</desc>
	<defs/>
	<path id="Vector" d="M12.48 6.08C8.94 6.08 6.07 8.94 6.07 12.49C6.07 16.03 8.94 18.9 12.48 18.9C16.03 18.9 18.89 16.03 18.89 12.49C18.89 8.94 16.03 6.08 12.48 6.08ZM12.48 16.65C10.19 16.65 8.32 14.78 8.32 12.49C8.32 10.19 10.19 8.32 12.48 8.32C14.78 8.32 16.65 10.19 16.65 12.49C16.65 14.78 14.78 16.65 12.48 16.65ZM19.16 4.32C18.33 4.32 17.66 4.99 17.66 5.82C17.66 6.65 18.33 7.31 19.16 7.31C19.98 7.31 20.65 6.65 20.65 5.82C20.65 5.62 20.61 5.43 20.54 5.24C20.46 5.06 20.35 4.9 20.21 4.76C20.08 4.62 19.91 4.51 19.73 4.43C19.55 4.36 19.35 4.32 19.16 4.32ZM24.98 12.49C24.98 10.76 24.99 9.05 24.9 7.33C24.8 5.33 24.34 3.56 22.88 2.09C21.41 0.63 19.64 0.17 17.64 0.08C15.92 -0.02 14.21 0 12.49 0C10.76 0 9.05 -0.02 7.33 0.08C5.33 0.17 3.56 0.63 2.09 2.09C0.63 3.56 0.17 5.33 0.08 7.33C-0.02 9.06 0 10.76 0 12.49C0 14.21 -0.02 15.92 0.08 17.64C0.17 19.64 0.63 21.42 2.09 22.88C3.56 24.35 5.33 24.8 7.33 24.9C9.06 24.99 10.76 24.98 12.49 24.98C14.21 24.98 15.92 24.99 17.64 24.9C19.64 24.8 21.42 24.34 22.88 22.88C24.35 21.41 24.8 19.64 24.9 17.64C25 15.92 24.98 14.21 24.98 12.49ZM22.23 19.86C22 20.42 21.72 20.85 21.28 21.29C20.84 21.73 20.42 22 19.85 22.23C18.21 22.88 14.31 22.74 12.48 22.74C10.66 22.74 6.76 22.88 5.11 22.23C4.54 22.01 4.12 21.73 3.68 21.29C3.24 20.85 2.96 20.43 2.74 19.86C2.09 18.21 2.23 14.31 2.23 12.49C2.23 10.66 2.09 6.76 2.74 5.11C2.96 4.55 3.24 4.12 3.68 3.68C4.12 3.25 4.54 2.97 5.11 2.74C6.76 2.09 10.66 2.24 12.48 2.24C14.31 2.24 18.21 2.09 19.86 2.74C20.42 2.97 20.85 3.24 21.29 3.68C21.73 4.12 22 4.55 22.23 5.11C22.88 6.76 22.73 10.66 22.73 12.49C22.73 14.31 22.88 18.21 22.23 19.86Z" fill="#E6DFE7" fill-opacity="1.000000" fill-rule="nonzero"/>
</svg> -->
<svg width="53.000000" height="53.000000" viewBox="0 0 53 53" fill="none" xmlns="http://www.w3.org/2000/svg" xmlns:xlink="http://www.w3.org/1999/xlink">
	<desc>
			Created with Pixso.
	</desc>
	<defs/>
	<circle id="Ellipse 1" cx="26.500000" cy="26.500000" r="26.500000" fill="#410C55" fill-opacity="1.000000"/>
	<path id="Vector" d="M26.99 20.59C23.45 20.59 20.58 23.45 20.58 27C20.58 30.54 23.45 33.41 26.99 33.41C30.54 33.41 33.4 30.54 33.4 27C33.4 23.45 30.54 20.59 26.99 20.59ZM26.99 31.16C24.7 31.16 22.83 29.29 22.83 27C22.83 24.7 24.7 22.83 26.99 22.83C29.29 22.83 31.16 24.7 31.16 27C31.16 29.29 29.29 31.16 26.99 31.16ZM33.67 18.83C32.84 18.83 32.17 19.5 32.17 20.33C32.17 21.16 32.84 21.82 33.67 21.82C34.49 21.82 35.16 21.16 35.16 20.33C35.16 20.13 35.12 19.94 35.05 19.75C34.97 19.57 34.86 19.41 34.72 19.27C34.59 19.13 34.42 19.02 34.24 18.94C34.06 18.87 33.86 18.83 33.67 18.83ZM39.49 27C39.49 25.27 39.5 23.56 39.41 21.84C39.31 19.84 38.85 18.06 37.39 16.6C35.93 15.14 34.15 14.68 32.15 14.59C30.43 14.49 28.72 14.51 27 14.51C25.27 14.51 23.56 14.49 21.84 14.59C19.84 14.68 18.07 15.14 16.6 16.6C15.14 18.07 14.68 19.84 14.59 21.84C14.49 23.56 14.51 25.27 14.51 27C14.51 28.72 14.49 30.43 14.59 32.15C14.68 34.15 15.14 35.93 16.6 37.39C18.07 38.86 19.84 39.31 21.84 39.41C23.57 39.5 25.28 39.49 27 39.49C28.72 39.49 30.43 39.5 32.15 39.41C34.15 39.31 35.93 38.85 37.39 37.39C38.86 35.92 39.31 34.15 39.41 32.15C39.51 30.43 39.49 28.72 39.49 27ZM36.74 34.36C36.51 34.93 36.23 35.36 35.79 35.8C35.35 36.24 34.93 36.51 34.36 36.74C32.72 37.39 28.82 37.25 26.99 37.25C25.17 37.25 21.27 37.39 19.62 36.74C19.05 36.51 18.63 36.24 18.19 35.8C17.75 35.36 17.48 34.94 17.25 34.37C16.6 32.72 16.74 28.82 16.74 27C16.74 25.17 16.6 21.27 17.25 19.62C17.48 19.06 17.75 18.63 18.19 18.19C18.63 17.76 19.05 17.48 19.62 17.25C21.27 16.6 25.17 16.75 26.99 16.75C28.82 16.75 32.72 16.6 34.37 17.25C34.93 17.48 35.36 17.75 35.8 18.19C36.24 18.63 36.51 19.06 36.74 19.62C37.39 21.27 37.24 25.17 37.24 27C37.24 28.82 37.39 32.72 36.74 34.36Z" fill="#E6DFE7" fill-opacity="1.000000" fill-rule="nonzero"/>
</svg>
