<svg width="32" height="32" viewBox="0 0 32 32" fill="none" xmlns="http://www.w3.org/2000/svg">
<path d="M22.6257 6.8214V4.40578C22.6257 4.1964 22.385 4.08078 22.2225 4.2089L8.13503 15.212C8.01534 15.3051 7.91849 15.4243 7.85186 15.5605C7.78524 15.6967 7.75061 15.8463 7.75061 15.998C7.75061 16.1496 7.78524 16.2992 7.85186 16.4354C7.91849 16.5716 8.01534 16.6908 8.13503 16.7839L22.2225 27.787C22.3882 27.9152 22.6257 27.7995 22.6257 27.5902V25.1745C22.6257 25.0214 22.5538 24.8745 22.435 24.7808L11.185 15.9995L22.435 7.21515C22.5538 7.1214 22.6257 6.97453 22.6257 6.8214Z" fill="#BC98C9"/>
</svg>
