<svg width="60.000000" height="72.247803" viewBox="0 0 60 72.2478" fill="none" xmlns="http://www.w3.org/2000/svg" xmlns:xlink="http://www.w3.org/1999/xlink">
	<desc>
			Created with Pixso.
	</desc>
	<defs/>
	<path id="ART UA" d="M0.06 68.05L0.06 68.5L3.3 68.5L3.3 68.05Q3.19 68.01 2.9 67.91C2.71 67.85 2.54 67.79 2.39 67.73C2.23 67.67 2.13 67.6 2.06 67.54L2.97 65.37L7.81 65.37L8.73 67.6C8.64 67.68 8.42 67.76 8.08 67.87C7.74 67.96 7.54 68.02 7.48 68.05L7.48 68.5L11.84 68.5L11.84 68.05C11.76 68.02 11.63 67.97 11.45 67.91C11.27 67.85 11.12 67.79 10.97 67.73C10.83 67.67 10.72 67.6 10.65 67.54L6.54 57.69L5.31 57.69L1.2 67.48C1.14 67.54 1.03 67.61 0.89 67.68Q0.69 67.77 0.4 67.9C0.21 67.98 0.1 68.03 0.06 68.05ZM12.41 68.05L12.41 68.5L16.95 68.5L16.95 68.05C16.9 68.03 16.67 67.96 16.26 67.84C15.85 67.7 15.6 67.59 15.52 67.51L15.52 63.57L17.2 63.57L19.59 68.08L20.01 68.5L22.71 68.5L22.71 68.05C22.66 68.02 22.44 67.95 22.06 67.85C21.68 67.74 21.45 67.64 21.35 67.56L19.08 63.25Q20.09 62.88 20.64 62.17C21.02 61.69 21.21 61.14 21.21 60.52Q21.21 59.94 21 59.46Q20.74 58.9 20.19 58.48C19.53 57.96 18.62 57.69 17.48 57.69L12.41 57.69L12.41 58.14C12.46 58.16 12.66 58.23 13.02 58.36C13.38 58.47 13.6 58.57 13.7 58.65L13.7 67.54C13.6 67.62 13.38 67.73 13.02 67.85Q12.48 68.02 12.41 68.05ZM25.35 68.05L25.35 68.5L29.72 68.5L29.72 68.05C29.68 68.03 29.48 67.96 29.12 67.85C28.76 67.73 28.54 67.62 28.45 67.54L28.45 58.48L30.83 58.48C31.17 59.36 31.47 60 31.73 60.41L32.14 60.41C32.2 60.41 32.24 60.17 32.28 59.7C32.33 59.23 32.36 58.82 32.36 58.48L32.36 57.69L22.73 57.69L22.73 58.48Q22.73 58.99 22.79 59.7Q22.87 60.41 22.94 60.41L23.34 60.41C23.65 59.93 23.95 59.28 24.24 58.48L26.63 58.48L26.63 67.54C26.54 67.62 26.31 67.73 25.95 67.85C25.59 67.96 25.39 68.03 25.35 68.05ZM48.08 58.14L48.08 57.69L44.63 57.69L44.63 58.14C44.66 58.15 44.85 58.22 45.21 58.36C45.58 58.49 45.81 58.6 45.89 58.68L45.89 64.7Q45.89 65.58 45.51 66.23Q45.33 66.53 45.07 66.79C44.53 67.31 43.83 67.57 42.98 67.57C42.11 67.57 41.4 67.3 40.83 66.75C40.27 66.2 40 65.44 40 64.47L40 58.65C40.09 58.57 40.31 58.47 40.67 58.36C41.04 58.23 41.24 58.16 41.28 58.14L41.28 57.69L36.91 57.69L36.91 58.14C36.95 58.16 37.15 58.23 37.51 58.36C37.87 58.47 38.09 58.57 38.17 58.65L38.17 64.76C38.17 65.87 38.56 66.8 39.33 67.53C40.11 68.26 41.15 68.62 42.43 68.62C43.74 68.62 44.8 68.25 45.6 67.51C46.4 66.76 46.8 65.82 46.8 64.69L46.8 58.68C46.88 58.62 46.99 58.56 47.14 58.5Q47.39 58.39 47.68 58.3C47.88 58.22 48.01 58.17 48.08 58.14ZM47.5 68.05L47.5 68.5L50.74 68.5L50.74 68.05C50.67 68.02 50.54 67.97 50.34 67.91C50.16 67.85 49.99 67.79 49.83 67.73C49.68 67.67 49.57 67.6 49.51 67.54L50.42 65.37L55.25 65.37L56.18 67.6C56.08 67.68 55.87 67.76 55.53 67.87C55.19 67.96 54.99 68.02 54.93 68.05L54.93 68.5L59.28 68.5L59.28 68.05C59.21 68.02 59.08 67.97 58.89 67.91C58.72 67.85 58.56 67.79 58.41 67.73C58.27 67.67 58.16 67.6 58.09 67.54L53.98 57.69L52.75 57.69L48.64 67.48C48.58 67.54 48.48 67.61 48.33 67.68Q48.13 67.77 47.84 67.9C47.65 67.98 47.54 68.03 47.5 68.05ZM18.71 59.11C19.14 59.54 19.36 60.08 19.36 60.75Q19.36 61.44 19.04 61.93Q18.93 62.1 18.77 62.25C18.38 62.61 17.89 62.79 17.31 62.79L15.52 62.79L15.52 58.48L17.12 58.48C17.76 58.48 18.29 58.69 18.71 59.11ZM5.4 59.55L7.48 64.59L3.3 64.59L5.4 59.55ZM52.84 59.55L54.93 64.59L50.74 64.59L52.84 59.55Z" fill="#E6DFE7" fill-opacity="1.000000" fill-rule="evenodd"/>
	<rect id="Rectangle 8" x="21.869507" y="17.045654" width="14.150990" height="13.829375" fill="#410C55" fill-opacity="1.000000"/>
	<rect id="Rectangle 9" x="4.824402" y="9.005249" width="4.180974" height="30.553270" fill="#BC98C9" fill-opacity="1.000000"/>
	<rect id="Rectangle 10" x="4.824402" y="39.558228" width="4.180974" height="31.518112" transform="rotate(-90 4.824402 39.558228)" fill="#BC98C9" fill-opacity="1.000000"/>
	<rect id="Rectangle 9" x="53.388611" y="39.558960" width="4.180974" height="30.553270" transform="rotate(180 53.388611 39.558960)" fill="#BC98C9" fill-opacity="1.000000"/>
	<rect id="Rectangle 10" x="53.388672" y="9.005981" width="4.180974" height="31.518112" transform="rotate(90 53.388672 9.005981)" fill="#BC98C9" fill-opacity="1.000000"/>
	<rect id="Rectangle 9" x="44.703796" width="4.180974" height="30.553270" transform="rotate(90 44.703796 0.000000)" fill="#FF7086" fill-opacity="1.000000"/>
	<rect id="Rectangle 10" x="14.150818" width="4.180974" height="31.518112" fill="#FF7086" fill-opacity="1.000000"/>
	<rect id="Rectangle 9" x="14.150146" y="48.564209" width="4.180974" height="30.553270" transform="rotate(-90 14.150146 48.564209)" fill="#57F4AB" fill-opacity="1.000000"/>
	<rect id="Rectangle 10" x="44.703125" y="48.564209" width="4.180974" height="31.518112" transform="rotate(-180 44.703125 48.564209)" fill="#57F4AB" fill-opacity="1.000000"/>
</svg>
