<svg width="53.000000" height="53.000000" viewBox="0 0 53 53" fill="none" xmlns="http://www.w3.org/2000/svg" xmlns:xlink="http://www.w3.org/1999/xlink">
	<desc>
			Created with Pixso.
	</desc>
	<defs/>
	<circle id="Ellipse 1" cx="26.500000" cy="26.500000" r="26.500000" fill="#410C55" fill-opacity="1.000000"/>
	<path id="Vector" d="M38.55 14.48L14.91 23.59C13.29 24.24 13.3 25.14 14.61 25.54L20.68 27.43L31.09 20.87L34.26 18.86L34.72 18.57C35.39 18.17 35.99 18.39 35.5 18.83L34.69 19.55L31.96 22.02L25.27 28.06L24.12 29.1L24.12 29.1L24.12 29.1L24.12 29.14L23.8 33.83L23.7 35.36C24.31 35.36 24.58 35.07 24.93 34.74L25.2 34.48L27.88 31.88L34.01 36.4C35.14 37.03 35.95 36.71 36.23 35.36L40.26 16.39C40.67 14.74 39.63 13.99 38.55 14.48ZM34.83 35.29L34.85 35.31L34.84 35.27L34.83 35.29ZM34.84 35.23L34.82 35.06L38.85 16.06L38.86 16.04L39.14 15.79L39.1 15.8L35.98 17.01C35.99 17.01 36 17.02 36.01 17.02C36.41 17.16 36.7 17.37 36.88 17.64C37.05 17.9 37.13 18.22 37.12 18.6C37.11 18.74 37.09 18.87 37.06 19C36.96 19.33 36.76 19.63 36.45 19.91L25.52 29.78L25.35 32.33L27.75 29.99L34.84 35.23ZM32.19 18.47L16.36 24.58L20.48 25.86L32.19 18.47Z" fill="#E6DFE7" fill-opacity="1.000000" fill-rule="evenodd"/>
</svg>
